# xmcd
#
# Track frame offsets:
#	150
#	13404
#	28814
#	48317
#	63195
#	79392
#	97802
#	114754
#	125686
#	143884
#	158532
#
# Disc length: 2379 seconds
#
# Revision: 1
# Processed by: cddbd v1.5.2PL0 Copyright (c) Steve Scherf et al.
# Submitted via: EasyCDDAExtractor 5.0.6
#
DISCID=8909490b
DTITLE=Matt Dwyer - Who Loves Ya?
DYEAR=2006
DGENRE=Blues
TTITLE0=Who Loves Ya?
TTITLE1=Every Girl I Meet
TTITLE2=Lone Star State of Mind
TTITLE3=What Colour Are Your Wings?
TTITLE4=One More Kiss
TTITLE5=Late Again
TTITLE6=Hard to leave
TTITLE7=Two Words
TTITLE8=Anna
TTITLE9=Ruby
TTITLE10=Blues for Stu
EXTD=
EXTT0=
EXTT1=
EXTT2=
EXTT3=
EXTT4=
EXTT5=
EXTT6=
EXTT7=
EXTT8=
EXTT9=
EXTT10=
PLAYORDER=
